<svg id="mermaid-1616361465737" width="100%" xmlns="http://www.w3.org/2000/svg" xmlns:xlink="http://www.w3.org/1999/xlink" height="336.9375" style="max-width: 1822.90234375px;" viewBox="-20 -20 1822.90234375 336.9375"><style>#mermaid-1616361465737{font-family:"trebuchet ms",verdana,arial,sans-serif;font-size:16px;fill:#333;}#mermaid-1616361465737 .error-icon{fill:#552222;}#mermaid-1616361465737 .error-text{fill:#552222;stroke:#552222;}#mermaid-1616361465737 .edge-thickness-normal{stroke-width:2px;}#mermaid-1616361465737 .edge-thickness-thick{stroke-width:3.5px;}#mermaid-1616361465737 .edge-pattern-solid{stroke-dasharray:0;}#mermaid-1616361465737 .edge-pattern-dashed{stroke-dasharray:3;}#mermaid-1616361465737 .edge-pattern-dotted{stroke-dasharray:2;}#mermaid-1616361465737 .marker{fill:#333333;stroke:#333333;}#mermaid-1616361465737 .marker.cross{stroke:#333333;}#mermaid-1616361465737 svg{font-family:"trebuchet ms",verdana,arial,sans-serif;font-size:16px;}#mermaid-1616361465737 g.classGroup text{fill:#9370DB;fill:#131300;stroke:none;font-family:"trebuchet ms",verdana,arial,sans-serif;font-size:10px;}#mermaid-1616361465737 g.classGroup text .title{font-weight:bolder;}#mermaid-1616361465737 .classTitle{font-weight:bolder;}#mermaid-1616361465737 .node rect,#mermaid-1616361465737 .node circle,#mermaid-1616361465737 .node ellipse,#mermaid-1616361465737 .node polygon,#mermaid-1616361465737 .node path{fill:#ECECFF;stroke:#9370DB;stroke-width:1px;}#mermaid-1616361465737 .divider{stroke:#9370DB;stroke:1;}#mermaid-1616361465737 g.clickable{cursor:pointer;}#mermaid-1616361465737 g.classGroup rect{fill:#ECECFF;stroke:#9370DB;}#mermaid-1616361465737 g.classGroup line{stroke:#9370DB;stroke-width:1;}#mermaid-1616361465737 .classLabel .box{stroke:none;stroke-width:0;fill:#ECECFF;opacity:0.5;}#mermaid-1616361465737 .classLabel .label{fill:#9370DB;font-size:10px;}#mermaid-1616361465737 .relation{stroke:#333333;stroke-width:1;fill:none;}#mermaid-1616361465737 .dashed-line{stroke-dasharray:3;}#mermaid-1616361465737 #compositionStart,#mermaid-1616361465737 .composition{fill:#333333 !important;stroke:#333333 !important;stroke-width:1;}#mermaid-1616361465737 #compositionEnd,#mermaid-1616361465737 .composition{fill:#333333 !important;stroke:#333333 !important;stroke-width:1;}#mermaid-1616361465737 #dependencyStart,#mermaid-1616361465737 .dependency{fill:#333333 !important;stroke:#333333 !important;stroke-width:1;}#mermaid-1616361465737 #dependencyStart,#mermaid-1616361465737 .dependency{fill:#333333 !important;stroke:#333333 !important;stroke-width:1;}#mermaid-1616361465737 #extensionStart,#mermaid-1616361465737 .extension{fill:#333333 !important;stroke:#333333 !important;stroke-width:1;}#mermaid-1616361465737 #extensionEnd,#mermaid-1616361465737 .extension{fill:#333333 !important;stroke:#333333 !important;stroke-width:1;}#mermaid-1616361465737 #aggregationStart,#mermaid-1616361465737 .aggregation{fill:#ECECFF !important;stroke:#333333 !important;stroke-width:1;}#mermaid-1616361465737 #aggregationEnd,#mermaid-1616361465737 .aggregation{fill:#ECECFF !important;stroke:#333333 !important;stroke-width:1;}#mermaid-1616361465737 .edgeTerminals{font-size:11px;}#mermaid-1616361465737:root{--mermaid-font-family:"trebuchet ms",verdana,arial,sans-serif;}#mermaid-1616361465737 class{fill:apa;}</style><g></g><defs><marker id="extensionStart" class="extension" refX="0" refY="7" markerWidth="190" markerHeight="240" orient="auto"><path d="M 1,7 L18,13 V 1 Z"></path></marker></defs><defs><marker id="extensionEnd" refX="19" refY="7" markerWidth="20" markerHeight="28" orient="auto"><path d="M 1,1 V 13 L18,7 Z"></path></marker></defs><defs><marker id="compositionStart" class="extension" refX="0" refY="7" markerWidth="190" markerHeight="240" orient="auto"><path d="M 18,7 L9,13 L1,7 L9,1 Z"></path></marker></defs><defs><marker id="compositionEnd" refX="19" refY="7" markerWidth="20" markerHeight="28" orient="auto"><path d="M 18,7 L9,13 L1,7 L9,1 Z"></path></marker></defs><defs><marker id="aggregationStart" class="extension" refX="0" refY="7" markerWidth="190" markerHeight="240" orient="auto"><path d="M 18,7 L9,13 L1,7 L9,1 Z"></path></marker></defs><defs><marker id="aggregationEnd" refX="19" refY="7" markerWidth="20" markerHeight="28" orient="auto"><path d="M 18,7 L9,13 L1,7 L9,1 Z"></path></marker></defs><defs><marker id="dependencyStart" class="extension" refX="0" refY="7" markerWidth="190" markerHeight="240" orient="auto"><path d="M 5,7 L9,13 L1,7 L9,1 Z"></path></marker></defs><defs><marker id="dependencyEnd" refX="19" refY="7" markerWidth="20" markerHeight="28" orient="auto"><path d="M 18,7 L9,13 L14,7 L9,1 Z"></path></marker></defs><g id="classid-Robot-29519" class="classGroup" transform="translate(1101.81640625,0 )"><rect x="0" y="0" width="37.484375" height="36.734375" class=" "></rect><text y="15" x="0"><tspan class="title" x="5">Robot</tspan></text><line x1="0" y1="21.734375" y2="21.734375" x2="37.484375"></line><text x="5" y="31.734375" fill="white" class="classText"></text><line x1="0" y1="26.734375" y2="26.734375" x2="37.484375"></line><text x="5" y="41.734375" fill="white" class="classText"></text></g><g id="classid-IDPRobot-29520" class="classGroup" transform="translate(1094.20703125,86.734375 )"><rect x="0" y="0" width="52.703125" height="36.734375" class=" "></rect><text y="15" x="0"><tspan class="title" x="5">IDPRobot</tspan></text><line x1="0" y1="21.734375" y2="21.734375" x2="52.703125"></line><text x="5" y="31.734375" fill="white" class="classText"></text><line x1="0" y1="26.734375" y2="26.734375" x2="52.703125"></line><text x="5" y="41.734375" fill="white" class="classText"></text></g><g id="classid-IDPColorDetector-29521" class="classGroup" transform="translate(0,173.46875 )"><rect x="0" y="0" width="91.4375" height="36.734375" class=" "></rect><text y="15" x="0"><tspan class="title" x="5">IDPColorDetector</tspan></text><line x1="0" y1="21.734375" y2="21.734375" x2="91.4375"></line><text x="5" y="31.734375" fill="white" class="classText"></text><line x1="0" y1="26.734375" y2="26.734375" x2="91.4375"></line><text x="5" y="41.734375" fill="white" class="classText"></text></g><g id="classid-IDPLightSensor-29522" class="classGroup" transform="translate(68.6328125,260.203125 )"><rect x="0" y="0" width="80.203125" height="36.734375" class=" "></rect><text y="15" x="0"><tspan class="title" x="5">IDPLightSensor</tspan></text><line x1="0" y1="21.734375" y2="21.734375" x2="80.203125"></line><text x="5" y="31.734375" fill="white" class="classText"></text><line x1="0" y1="26.734375" y2="26.734375" x2="80.203125"></line><text x="5" y="41.734375" fill="white" class="classText"></text></g><g id="classid-LightSenor-29523" class="classGroup" transform="translate(141.4375,173.46875 )"><rect x="0" y="0" width="60.625" height="36.734375" class=" "></rect><text y="15" x="0"><tspan class="title" x="5">LightSenor</tspan></text><line x1="0" y1="21.734375" y2="21.734375" x2="60.625"></line><text x="5" y="31.734375" fill="white" class="classText"></text><line x1="0" y1="26.734375" y2="26.734375" x2="60.625"></line><text x="5" y="41.734375" fill="white" class="classText"></text></g><g id="classid-IDPCompass-29524" class="classGroup" transform="translate(252.0625,173.46875 )"><rect x="0" y="0" width="65.765625" height="36.734375" class=" "></rect><text y="15" x="0"><tspan class="title" x="5">IDPCompass</tspan></text><line x1="0" y1="21.734375" y2="21.734375" x2="65.765625"></line><text x="5" y="31.734375" fill="white" class="classText"></text><line x1="0" y1="26.734375" y2="26.734375" x2="65.765625"></line><text x="5" y="41.734375" fill="white" class="classText"></text></g><g id="classid-Compass-29525" class="classGroup" transform="translate(154.3828125,86.734375 )"><rect x="0" y="0" width="50.546875" height="36.734375" class=" "></rect><text y="15" x="0"><tspan class="title" x="5">Compass</tspan></text><line x1="0" y1="21.734375" y2="21.734375" x2="50.546875"></line><text x="5" y="31.734375" fill="white" class="classText"></text><line x1="0" y1="26.734375" y2="26.734375" x2="50.546875"></line><text x="5" y="41.734375" fill="white" class="classText"></text></g><g id="classid-IDPGPS-29526" class="classGroup" transform="translate(367.828125,173.46875 )"><rect x="0" y="0" width="43.109375" height="36.734375" class=" "></rect><text y="15" x="0"><tspan class="title" x="5">IDPGPS</tspan></text><line x1="0" y1="21.734375" y2="21.734375" x2="43.109375"></line><text x="5" y="31.734375" fill="white" class="classText"></text><line x1="0" y1="26.734375" y2="26.734375" x2="43.109375"></line><text x="5" y="41.734375" fill="white" class="classText"></text></g><g id="classid-GPS-29527" class="classGroup" transform="translate(270.15625,86.734375 )"><rect x="0" y="0" width="27.875" height="36.734375" class=" "></rect><text y="15" x="0"><tspan class="title" x="5">GPS</tspan></text><line x1="0" y1="21.734375" y2="21.734375" x2="27.875"></line><text x="5" y="31.734375" fill="white" class="classText"></text><line x1="0" y1="26.734375" y2="26.734375" x2="27.875"></line><text x="5" y="41.734375" fill="white" class="classText"></text></g><g id="classid-IDPRadio-29528" class="classGroup" transform="translate(460.9375,173.46875 )"><rect x="0" y="0" width="51.375" height="36.734375" class=" "></rect><text y="15" x="0"><tspan class="title" x="5">IDPRadio</tspan></text><line x1="0" y1="21.734375" y2="21.734375" x2="51.375"></line><text x="5" y="31.734375" fill="white" class="classText"></text><line x1="0" y1="26.734375" y2="26.734375" x2="51.375"></line><text x="5" y="41.734375" fill="white" class="classText"></text></g><g id="classid-IDPEmitter-29529" class="classGroup" transform="translate(505.46484375,260.203125 )"><rect x="0" y="0" width="60.796875" height="36.734375" class=" "></rect><text y="15" x="0"><tspan class="title" x="5">IDPEmitter</tspan></text><line x1="0" y1="21.734375" y2="21.734375" x2="60.796875"></line><text x="5" y="31.734375" fill="white" class="classText"></text><line x1="0" y1="26.734375" y2="26.734375" x2="60.796875"></line><text x="5" y="41.734375" fill="white" class="classText"></text></g><g id="classid-Emitter-29530" class="classGroup" transform="translate(562.3125,173.46875 )"><rect x="0" y="0" width="45.578125" height="36.734375" class=" "></rect><text y="15" x="0"><tspan class="title" x="5">Emitter</tspan></text><line x1="0" y1="21.734375" y2="21.734375" x2="45.578125"></line><text x="5" y="31.734375" fill="white" class="classText"></text><line x1="0" y1="26.734375" y2="26.734375" x2="45.578125"></line><text x="5" y="41.734375" fill="white" class="classText"></text></g><g id="classid-IDPReceiver-29531" class="classGroup" transform="translate(647.88671875,260.203125 )"><rect x="0" y="0" width="66.640625" height="36.734375" class=" "></rect><text y="15" x="0"><tspan class="title" x="5">IDPReceiver</tspan></text><line x1="0" y1="21.734375" y2="21.734375" x2="66.640625"></line><text x="5" y="31.734375" fill="white" class="classText"></text><line x1="0" y1="26.734375" y2="26.734375" x2="66.640625"></line><text x="5" y="41.734375" fill="white" class="classText"></text></g><g id="classid-Receiver-29532" class="classGroup" transform="translate(665.50390625,173.46875 )"><rect x="0" y="0" width="51.40625" height="36.734375" class=" "></rect><text y="15" x="0"><tspan class="title" x="5">Receiver</tspan></text><line x1="0" y1="21.734375" y2="21.734375" x2="51.40625"></line><text x="5" y="31.734375" fill="white" class="classText"></text><line x1="0" y1="26.734375" y2="26.734375" x2="51.40625"></line><text x="5" y="41.734375" fill="white" class="classText"></text></g><g id="classid-IDPMotorController-29533" class="classGroup" transform="translate(766.91015625,173.46875 )"><rect x="0" y="0" width="100.46875" height="36.734375" class=" "></rect><text y="15" x="0"><tspan class="title" x="5">IDPMotorController</tspan></text><line x1="0" y1="21.734375" y2="21.734375" x2="100.46875"></line><text x="5" y="31.734375" fill="white" class="classText"></text><line x1="0" y1="26.734375" y2="26.734375" x2="100.46875"></line><text x="5" y="41.734375" fill="white" class="classText"></text></g><g id="classid-MotionCS-29534" class="classGroup" transform="translate(917.37890625,173.46875 )"><rect x="0" y="0" width="53.28125" height="36.734375" class=" "></rect><text y="15" x="0"><tspan class="title" x="5">MotionCS</tspan></text><line x1="0" y1="21.734375" y2="21.734375" x2="53.28125"></line><text x="5" y="31.734375" fill="white" class="classText"></text><line x1="0" y1="26.734375" y2="26.734375" x2="53.28125"></line><text x="5" y="41.734375" fill="white" class="classText"></text></g><g id="classid-IDPMotor-29535" class="classGroup" transform="translate(991.4921875,260.203125 )"><rect x="0" y="0" width="52.515625" height="36.734375" class=" "></rect><text y="15" x="0"><tspan class="title" x="5">IDPMotor</tspan></text><line x1="0" y1="21.734375" y2="21.734375" x2="52.515625"></line><text x="5" y="31.734375" fill="white" class="classText"></text><line x1="0" y1="26.734375" y2="26.734375" x2="52.515625"></line><text x="5" y="41.734375" fill="white" class="classText"></text></g><g id="classid-Motor-29536" class="classGroup" transform="translate(1020.66015625,173.46875 )"><rect x="0" y="0" width="37.28125" height="36.734375" class=" "></rect><text y="15" x="0"><tspan class="title" x="5">Motor</tspan></text><line x1="0" y1="21.734375" y2="21.734375" x2="37.28125"></line><text x="5" y="31.734375" fill="white" class="classText"></text><line x1="0" y1="26.734375" y2="26.734375" x2="37.28125"></line><text x="5" y="41.734375" fill="white" class="classText"></text></g><g id="classid-PID-29537" class="classGroup" transform="translate(1107.94140625,173.46875 )"><rect x="0" y="0" width="25.234375" height="36.734375" class=" "></rect><text y="15" x="0"><tspan class="title" x="5">PID</tspan></text><line x1="0" y1="21.734375" y2="21.734375" x2="25.234375"></line><text x="5" y="31.734375" fill="white" class="classText"></text><line x1="0" y1="26.734375" y2="26.734375" x2="25.234375"></line><text x="5" y="41.734375" fill="white" class="classText"></text></g><g id="classid-IDPGate-29538" class="classGroup" transform="translate(1183.17578125,173.46875 )"><rect x="0" y="0" width="47.203125" height="36.734375" class=" "></rect><text y="15" x="0"><tspan class="title" x="5">IDPGate</tspan></text><line x1="0" y1="21.734375" y2="21.734375" x2="47.203125"></line><text x="5" y="31.734375" fill="white" class="classText"></text><line x1="0" y1="26.734375" y2="26.734375" x2="47.203125"></line><text x="5" y="41.734375" fill="white" class="classText"></text></g><g id="classid-Map-29539" class="classGroup" transform="translate(1280.37890625,173.46875 )"><rect x="0" y="0" width="28.796875" height="36.734375" class=" "></rect><text y="15" x="0"><tspan class="title" x="5">Map</tspan></text><line x1="0" y1="21.734375" y2="21.734375" x2="28.796875"></line><text x="5" y="31.734375" fill="white" class="classText"></text><line x1="0" y1="26.734375" y2="26.734375" x2="28.796875"></line><text x="5" y="41.734375" fill="white" class="classText"></text></g><g id="classid-Display-29540" class="classGroup" transform="translate(1453.18359375,86.734375 )"><rect x="0" y="0" width="43.484375" height="36.734375" class=" "></rect><text y="15" x="0"><tspan class="title" x="5">Display</tspan></text><line x1="0" y1="21.734375" y2="21.734375" x2="43.484375"></line><text x="5" y="31.734375" fill="white" class="classText"></text><line x1="0" y1="26.734375" y2="26.734375" x2="43.484375"></line><text x="5" y="41.734375" fill="white" class="classText"></text></g><g id="classid-TargetingHandler-29541" class="classGroup" transform="translate(1359.17578125,173.46875 )"><rect x="0" y="0" width="92" height="36.734375" class=" "></rect><text y="15" x="0"><tspan class="title" x="5">TargetingHandler</tspan></text><line x1="0" y1="21.734375" y2="21.734375" x2="92"></line><text x="5" y="31.734375" fill="white" class="classText"></text><line x1="0" y1="26.734375" y2="26.734375" x2="92"></line><text x="5" y="41.734375" fill="white" class="classText"></text></g><g id="classid-TargetCache-29542" class="classGroup" transform="translate(1501.17578125,173.46875 )"><rect x="0" y="0" width="69.28125" height="36.734375" class=" "></rect><text y="15" x="0"><tspan class="title" x="5">TargetCache</tspan></text><line x1="0" y1="21.734375" y2="21.734375" x2="69.28125"></line><text x="5" y="31.734375" fill="white" class="classText"></text><line x1="0" y1="26.734375" y2="26.734375" x2="69.28125"></line><text x="5" y="41.734375" fill="white" class="classText"></text></g><g id="classid-Target-29543" class="classGroup" transform="translate(1608.07421875,260.203125 )"><rect x="0" y="0" width="40.75" height="36.734375" class=" "></rect><text y="15" x="0"><tspan class="title" x="5">Target</tspan></text><line x1="0" y1="21.734375" y2="21.734375" x2="40.75"></line><text x="5" y="31.734375" fill="white" class="classText"></text><line x1="0" y1="26.734375" y2="26.734375" x2="40.75"></line><text x="5" y="41.734375" fill="white" class="classText"></text></g><g id="classid-IDPDistanceSensor-29544" class="classGroup" transform="translate(1620.45703125,173.46875 )"><rect x="0" y="0" width="96.703125" height="36.734375" class=" "></rect><text y="15" x="0"><tspan class="title" x="5">IDPDistanceSensor</tspan></text><line x1="0" y1="21.734375" y2="21.734375" x2="96.703125"></line><text x="5" y="31.734375" fill="white" class="classText"></text><line x1="0" y1="26.734375" y2="26.734375" x2="96.703125"></line><text x="5" y="41.734375" fill="white" class="classText"></text></g><g id="classid-DistanceSensor-29545" class="classGroup" transform="translate(1701.41796875,86.734375 )"><rect x="0" y="0" width="81.484375" height="36.734375" class=" "></rect><text y="15" x="0"><tspan class="title" x="5">DistanceSensor</tspan></text><line x1="0" y1="21.734375" y2="21.734375" x2="81.484375"></line><text x="5" y="31.734375" fill="white" class="classText"></text><line x1="0" y1="26.734375" y2="26.734375" x2="81.484375"></line><text x="5" y="41.734375" fill="white" class="classText"></text></g><path d="M1120.55859375,36.734375L1120.55859375,40.901041666666664C1120.55859375,45.067708333333336,1120.55859375,53.401041666666664,1120.55859375,61.734375C1120.55859375,70.06770833333333,1120.55859375,78.40104166666667,1120.55859375,82.56770833333333L1120.55859375,86.734375" id="edge14071" class="relation" marker-start="url(#extensionStart)"></path><path d="M1094.20703125,106.16478429857828L919.458984375,113.21544524881523C744.7109375,120.2661061990522,395.21484375,134.3674280995261,220.466796875,145.58475571642973C45.71875,156.80208333333334,45.71875,165.13541666666666,45.71875,169.30208333333334L45.71875,173.46875" id="edge14072" class="relation" marker-start="url(#aggregationStart)"></path><path d="M45.71875,210.203125L45.71875,214.36979166666666C45.71875,218.53645833333334,45.71875,226.86979166666666,51.77321466102203,235.203125C57.82767932204408,243.53645833333334,69.93660864408815,251.86979166666666,75.99107330511019,256.0364583333333L82.04553796613223,260.203125" id="edge14073" class="relation" marker-start="url(#aggregationStart)"></path><path d="M171.75,210.203125L171.75,214.36979166666666C171.75,218.53645833333334,171.75,226.86979166666666,165.69553533897798,235.203125C159.64107067795592,243.53645833333334,147.53214135591185,251.86979166666666,141.47767669488982,256.0364583333333L135.42321203386777,260.203125" id="edge14074" class="relation" marker-start="url(#extensionStart)"></path><path d="M1094.20703125,106.31057756283629L941.0611979166666,113.33693963569691C787.9153645833334,120.36330170855751,481.6236979166667,134.41602585427876,341.2662760416667,146.5019704085341C200.90885416666666,158.5879149627894,226.48567708333334,168.7070799255788,239.27408854166666,173.7666624069735L252.0625,178.8262448883682" id="edge14075" class="relation" marker-start="url(#aggregationStart)"></path><path d="M204.9296875,112.53193438509612L225.30208333333334,118.52140365424675C245.67447916666666,124.51087292339741,286.4192708333333,136.4898114616987,302.7353404791929,146.645947397516C319.05141012505254,156.80208333333334,310.9387577501051,165.13541666666666,306.8824315626313,169.30208333333334L302.8261053751576,173.46875" id="edge14076" class="relation" marker-start="url(#extensionStart)"></path><path d="M1094.20703125,106.57919533250585L969.6998697916666,113.56078777708821C845.1927083333334,120.54238022167056,596.1783854166666,134.50556511083528,475.7275501458071,145.6538242220843C355.27671487494746,156.80208333333334,363.389367249895,165.13541666666666,367.4456934373686,169.30208333333334L371.5020196248424,173.46875" id="edge14077" class="relation" marker-start="url(#aggregationStart)"></path><path d="M298.03125,109.30161475156754L319.693359375,115.82947062630627C341.35546875,122.35732650104502,384.6796875,135.4130382505225,402.63112912744697,146.1075607919279C420.582570754894,156.80208333333334,413.16123525978804,165.13541666666666,409.450567512235,169.30208333333334L405.73989976468204,173.46875" id="edge14078" class="relation" marker-start="url(#extensionStart)"></path><path d="M1094.20703125,106.90426417588901L992.943359375,113.83167847990751C891.6796875,120.75909278392601,689.15234375,134.613921391963,587.888671875,145.70800236264816C486.625,156.80208333333334,486.625,165.13541666666666,486.625,169.30208333333334L486.625,173.46875" id="edge14079" class="relation" marker-start="url(#compositionStart)"></path><path d="M486.625,210.203125L486.625,214.36979166666666C486.625,218.53645833333334,486.625,226.86979166666666,491.35575421845914,235.203125C496.0865084369182,243.53645833333334,505.54801687383656,251.86979166666666,510.2787710922957,256.0364583333333L515.0095253107548,260.203125" id="edge14080" class="relation" marker-start="url(#aggregationStart)"></path><path d="M585.1015625,210.203125L585.1015625,214.36979166666666C585.1015625,218.53645833333334,585.1015625,226.86979166666666,580.3708082815409,235.203125C575.6400540630817,243.53645833333334,566.1785456261634,251.86979166666666,561.4477914077044,256.0364583333333L556.7170371892452,260.203125" id="edge14081" class="relation" marker-start="url(#extensionStart)"></path><path d="M512.3125,199.37705987882433L532.6516927083334,205.3480707323536C552.9908854166666,211.31908158588286,593.6692708333334,223.26110329294144,618.5106553389404,233.3987808131374C643.3520398445476,243.53645833333334,652.356423439095,251.86979166666666,656.8586152363688,256.0364583333333L661.3608070336426,260.203125" id="edge14082" class="relation" marker-start="url(#aggregationStart)"></path><path d="M691.20703125,210.203125L691.20703125,214.36979166666666C691.20703125,218.53645833333334,691.20703125,226.86979166666666,690.2462434039662,235.203125C689.2854555579324,243.53645833333334,687.363879865865,251.86979166666666,686.4030920198312,256.0364583333333L685.4423041737975,260.203125" id="edge14083" class="relation" marker-start="url(#extensionStart)"></path><path d="M1094.20703125,108.86801004840744L1048.0299479166667,115.46813337367287C1001.8528645833334,122.06825669893828,909.4986979166666,135.26850334946914,863.3216145833334,146.03529334140123C817.14453125,156.80208333333334,817.14453125,165.13541666666666,817.14453125,169.30208333333334L817.14453125,173.46875" id="edge14084" class="relation" marker-start="url(#compositionStart)"></path><path d="M1094.20703125,111.57487857901491L1069.17578125,117.72385714917908C1044.14453125,123.87283571934329,994.08203125,136.17079285967165,969.05078125,146.4864380965025C944.01953125,156.80208333333334,944.01953125,165.13541666666666,944.01953125,169.30208333333334L944.01953125,173.46875" id="edge14085" class="relation" marker-end="url(#dependencyEnd)"></path><path d="M817.14453125,210.203125L817.14453125,214.36979166666666C817.14453125,218.53645833333334,817.14453125,226.86979166666666,846.2024739583334,237.31824744730307C875.2604166666666,247.7667032279395,933.3763020833334,260.330281455879,962.4342447916666,266.61207056984875L991.4921875,272.8938596838185" id="edge14086" class="relation" marker-start="url(#aggregationStart)"></path><path d="M1039.30078125,210.203125L1039.30078125,214.36979166666666C1039.30078125,218.53645833333334,1039.30078125,226.86979166666666,1037.2302083802467,235.203125C1035.1596355104937,243.53645833333334,1031.0184897709871,251.86979166666666,1028.947916901234,256.0364583333333L1026.8773440314808,260.203125" id="edge14087" class="relation" marker-start="url(#extensionStart)"></path><path d="M1120.55859375,123.46875L1120.55859375,127.63541666666667C1120.55859375,131.80208333333334,1120.55859375,140.13541666666666,1120.55859375,148.46875C1120.55859375,156.80208333333334,1120.55859375,165.13541666666666,1120.55859375,169.30208333333334L1120.55859375,173.46875" id="edge14088" class="relation" marker-start="url(#aggregationStart)"></path><path d="M1146.91015625,118.35614055704059L1156.8880208333333,123.37490879753382C1166.8658854166667,128.39367703802705,1186.8216145833333,138.43121351901354,1196.7994791666667,147.61664842617344C1206.77734375,156.80208333333334,1206.77734375,165.13541666666666,1206.77734375,169.30208333333334L1206.77734375,173.46875" id="edge14089" class="relation" marker-start="url(#aggregationStart)"></path><path d="M1206.77734375,210.203125L1206.77734375,214.36979166666666C1206.77734375,218.53645833333334,1206.77734375,226.86979166666666,1179.6490885416667,237.2602993228338C1152.5208333333333,247.6508069790009,1098.2643229166667,260.09848895800184,1071.1360677083333,266.3223299475023L1044.0078125,272.5461709370027" id="edge14090" class="relation" marker-start="url(#aggregationStart)"></path><path d="M1146.91015625,113.25163623732449L1165.8880208333333,119.1211551977704C1184.8658854166667,124.99067415821632,1222.8216145833333,136.72971207910817,1245.06640625,146.76621455048777C1267.3111979166667,156.80271702186735,1273.8450520833333,165.13668404373468,1277.1119791666667,169.30366755466835L1280.37890625,173.47065106560203" id="edge14091" class="relation" marker-start="url(#compositionStart)"></path><path d="M1453.18359375,112.08861682092511L1434.3157552083333,118.15197235077092C1415.4479166666667,124.21532788061673,1377.7122395833333,136.34203894030836,1353.7109375,147.3307865918017C1329.7096354166667,158.319534243295,1319.4427083333333,168.17031848659005,1314.3092447916667,173.09571060823757L1309.17578125,178.02110272988506" id="edge14092" class="relation" marker-start="url(#extensionStart)"></path><path d="M1146.91015625,109.11675624811286L1189.9544270833333,115.6754218734274C1232.9986979166667,122.23408749874191,1319.0872395833333,135.35141874937096,1362.1315104166667,146.07675104135214C1405.17578125,156.80208333333334,1405.17578125,165.13541666666666,1405.17578125,169.30208333333334L1405.17578125,173.46875" id="edge14093" class="relation" marker-start="url(#compositionStart)"></path><path d="M1146.91015625,107.85357129418847L1211.7278645833333,114.62276774515705C1276.5455729166667,121.39196419612564,1406.1809895833333,134.9303570980628,1470.9986979166667,145.86622021569806C1535.81640625,156.80208333333334,1535.81640625,165.13541666666666,1535.81640625,169.30208333333334L1535.81640625,173.46875" id="edge14094" class="relation" marker-start="url(#compositionStart)"></path><path d="M1535.81640625,210.203125L1535.81640625,214.36979166666666C1535.81640625,218.53645833333334,1535.81640625,226.86979166666666,1547.859375,236.67452188492734C1559.90234375,246.47925210318797,1583.98828125,257.75537920637595,1596.03125,263.39344275797L1608.07421875,269.03150630956395" id="edge14095" class="relation" marker-start="url(#aggregationStart)"></path><path d="M1146.91015625,107.42547520782198L1224.4772135416667,114.26602100651832C1302.0442708333333,121.10656680521465,1457.1783854166667,134.78765840260732,1540.1735187306715,145.79487086797033C1623.1686520446765,156.80208333333334,1634.0248040893532,165.13541666666666,1639.4528801116915,169.30208333333334L1644.88095613403,173.46875" id="edge14096" class="relation" marker-start="url(#aggregationStart)"></path><path d="M1724.5093254593767,123.46875L1720.5051670494806,127.63541666666667C1716.5010086395844,131.80208333333334,1708.4926918197923,140.13541666666666,1701.4451628460338,148.46875C1694.3976338722753,156.80208333333334,1688.3108927445508,165.13541666666666,1685.2675221806883,169.30208333333334L1682.2241516168258,173.46875" id="edge14097" class="relation" marker-start="url(#extensionStart)"></path><path d="M1146.91015625,106.91092020223886L1247.78515625,113.83722516853238C1348.66015625,120.7635301348259,1550.41015625,134.61614006741294,1651.28515625,148.77030961703983C1752.16015625,162.92447916666666,1752.16015625,177.38020833333334,1752.16015625,191.8359375C1752.16015625,206.29166666666666,1752.16015625,220.74739583333334,1734.9375,234.01270688611726C1717.71484375,247.27801793890117,1683.26953125,259.35291087780234,1666.046875,265.3903573472529L1648.82421875,271.4278038167035" id="edge14098" class="relation" marker-end="url(#dependencyEnd)"></path></svg>